<mxfile host="app.diagrams.net" modified="2023-07-20T10:08:24.123Z" agent="Mozilla/5.0 (Windows NT 10.0; Win64; x64) AppleWebKit/537.36 (KHTML, like Gecko) Chrome/114.0.0.0 Safari/537.36" etag="2r2nWE95NAPbiSgQnzLM" version="21.6.3" type="device">
  <diagram name="Страница 1" id="xfXd9JZsXwqQKljm9j2A">
    <mxGraphModel dx="1493" dy="1651" grid="1" gridSize="10" guides="1" tooltips="1" connect="1" arrows="1" fold="1" page="1" pageScale="1" pageWidth="827" pageHeight="1169" math="0" shadow="0">
      <root>
        <mxCell id="0" />
        <mxCell id="1" parent="0" />
        <mxCell id="Zlc96BeneEr9R1D9HueX-4" style="edgeStyle=orthogonalEdgeStyle;rounded=0;orthogonalLoop=1;jettySize=auto;html=1;" parent="1" source="Zlc96BeneEr9R1D9HueX-1" target="Zlc96BeneEr9R1D9HueX-3" edge="1">
          <mxGeometry relative="1" as="geometry" />
        </mxCell>
        <mxCell id="Zlc96BeneEr9R1D9HueX-1" value="обычный пользователь" style="ellipse;whiteSpace=wrap;html=1;" parent="1" vertex="1">
          <mxGeometry x="40" y="-120" width="120" height="80" as="geometry" />
        </mxCell>
        <mxCell id="Zlc96BeneEr9R1D9HueX-2" value="&lt;h1 style=&quot;&quot;&gt;&lt;font style=&quot;font-size: 19px;&quot;&gt;Обычный пользователь&lt;/font&gt; &lt;font style=&quot;font-size: 13px;&quot;&gt;- может только проходить опросы&lt;/font&gt;&lt;/h1&gt;" style="text;html=1;strokeColor=none;fillColor=none;spacing=5;spacingTop=-20;whiteSpace=wrap;overflow=hidden;rounded=0;" parent="1" vertex="1">
          <mxGeometry x="10" y="-280" width="190" height="120" as="geometry" />
        </mxCell>
        <mxCell id="Zlc96BeneEr9R1D9HueX-5" style="edgeStyle=orthogonalEdgeStyle;rounded=0;orthogonalLoop=1;jettySize=auto;html=1;startArrow=classic;startFill=1;" parent="1" source="Zlc96BeneEr9R1D9HueX-3" target="Zlc96BeneEr9R1D9HueX-6" edge="1">
          <mxGeometry relative="1" as="geometry">
            <mxPoint x="290" y="170" as="targetPoint" />
          </mxGeometry>
        </mxCell>
        <mxCell id="Zlc96BeneEr9R1D9HueX-7" value="request to surveys database" style="edgeLabel;html=1;align=center;verticalAlign=middle;resizable=0;points=[];" parent="Zlc96BeneEr9R1D9HueX-5" vertex="1" connectable="0">
          <mxGeometry x="0.0687" y="-2" relative="1" as="geometry">
            <mxPoint as="offset" />
          </mxGeometry>
        </mxCell>
        <mxCell id="Zlc96BeneEr9R1D9HueX-14" style="edgeStyle=orthogonalEdgeStyle;rounded=0;orthogonalLoop=1;jettySize=auto;html=1;entryX=0.5;entryY=0;entryDx=0;entryDy=0;" parent="1" source="Zlc96BeneEr9R1D9HueX-3" target="Zlc96BeneEr9R1D9HueX-9" edge="1">
          <mxGeometry relative="1" as="geometry" />
        </mxCell>
        <mxCell id="Zlc96BeneEr9R1D9HueX-3" value="show surveys list" style="rounded=0;whiteSpace=wrap;html=1;" parent="1" vertex="1">
          <mxGeometry x="40" y="140" width="120" height="60" as="geometry" />
        </mxCell>
        <mxCell id="Zlc96BeneEr9R1D9HueX-6" value="update list&lt;br&gt;from db" style="rounded=0;whiteSpace=wrap;html=1;" parent="1" vertex="1">
          <mxGeometry x="370" y="140" width="120" height="60" as="geometry" />
        </mxCell>
        <mxCell id="Zlc96BeneEr9R1D9HueX-11" style="edgeStyle=orthogonalEdgeStyle;rounded=0;orthogonalLoop=1;jettySize=auto;html=1;entryX=0;entryY=0.25;entryDx=0;entryDy=0;" parent="1" source="Zlc96BeneEr9R1D9HueX-9" target="Zlc96BeneEr9R1D9HueX-3" edge="1">
          <mxGeometry relative="1" as="geometry">
            <mxPoint x="20" y="170" as="targetPoint" />
            <Array as="points">
              <mxPoint x="20" y="290" />
              <mxPoint x="20" y="155" />
            </Array>
          </mxGeometry>
        </mxCell>
        <mxCell id="Zlc96BeneEr9R1D9HueX-13" value="surveys == 0" style="edgeLabel;html=1;align=center;verticalAlign=middle;resizable=0;points=[];" parent="Zlc96BeneEr9R1D9HueX-11" vertex="1" connectable="0">
          <mxGeometry x="-0.0331" y="-1" relative="1" as="geometry">
            <mxPoint as="offset" />
          </mxGeometry>
        </mxCell>
        <mxCell id="Zlc96BeneEr9R1D9HueX-15" style="edgeStyle=orthogonalEdgeStyle;rounded=0;orthogonalLoop=1;jettySize=auto;html=1;entryX=0.5;entryY=0;entryDx=0;entryDy=0;" parent="1" source="Zlc96BeneEr9R1D9HueX-9" target="Zlc96BeneEr9R1D9HueX-10" edge="1">
          <mxGeometry relative="1" as="geometry" />
        </mxCell>
        <mxCell id="Zlc96BeneEr9R1D9HueX-9" value="select survey" style="rounded=0;whiteSpace=wrap;html=1;" parent="1" vertex="1">
          <mxGeometry x="40" y="260" width="120" height="60" as="geometry" />
        </mxCell>
        <mxCell id="Zlc96BeneEr9R1D9HueX-18" style="edgeStyle=orthogonalEdgeStyle;rounded=0;orthogonalLoop=1;jettySize=auto;html=1;entryX=0.5;entryY=0;entryDx=0;entryDy=0;" parent="1" source="Zlc96BeneEr9R1D9HueX-10" target="Zlc96BeneEr9R1D9HueX-17" edge="1">
          <mxGeometry relative="1" as="geometry" />
        </mxCell>
        <mxCell id="Zlc96BeneEr9R1D9HueX-10" value="passes" style="rounded=0;whiteSpace=wrap;html=1;" parent="1" vertex="1">
          <mxGeometry x="40" y="380" width="120" height="60" as="geometry" />
        </mxCell>
        <mxCell id="Zlc96BeneEr9R1D9HueX-20" style="edgeStyle=orthogonalEdgeStyle;rounded=0;orthogonalLoop=1;jettySize=auto;html=1;entryX=1;entryY=0.75;entryDx=0;entryDy=0;" parent="1" target="Zlc96BeneEr9R1D9HueX-3" edge="1">
          <mxGeometry relative="1" as="geometry">
            <mxPoint x="220" y="200" as="targetPoint" />
            <mxPoint x="160" y="515" as="sourcePoint" />
            <Array as="points">
              <mxPoint x="160" y="530" />
              <mxPoint x="190" y="530" />
              <mxPoint x="190" y="185" />
            </Array>
          </mxGeometry>
        </mxCell>
        <mxCell id="Zlc96BeneEr9R1D9HueX-24" value="back to list" style="edgeLabel;html=1;align=center;verticalAlign=middle;resizable=0;points=[];" parent="Zlc96BeneEr9R1D9HueX-20" vertex="1" connectable="0">
          <mxGeometry x="0.1714" y="-3" relative="1" as="geometry">
            <mxPoint as="offset" />
          </mxGeometry>
        </mxCell>
        <mxCell id="Zlc96BeneEr9R1D9HueX-17" value="save and send result to database survey&amp;nbsp;" style="rounded=0;whiteSpace=wrap;html=1;" parent="1" vertex="1">
          <mxGeometry x="40" y="500" width="120" height="60" as="geometry" />
        </mxCell>
        <mxCell id="Zlc96BeneEr9R1D9HueX-22" style="edgeStyle=orthogonalEdgeStyle;rounded=0;orthogonalLoop=1;jettySize=auto;html=1;entryX=1;entryY=0;entryDx=0;entryDy=0;" parent="1" source="Zlc96BeneEr9R1D9HueX-21" target="Zlc96BeneEr9R1D9HueX-3" edge="1">
          <mxGeometry relative="1" as="geometry">
            <Array as="points">
              <mxPoint x="810" y="-30" />
              <mxPoint x="160" y="-30" />
            </Array>
          </mxGeometry>
        </mxCell>
        <mxCell id="Zlc96BeneEr9R1D9HueX-23" value="it can also take surveys" style="edgeLabel;html=1;align=center;verticalAlign=middle;resizable=0;points=[];" parent="Zlc96BeneEr9R1D9HueX-22" vertex="1" connectable="0">
          <mxGeometry x="-0.0176" y="1" relative="1" as="geometry">
            <mxPoint x="-1" as="offset" />
          </mxGeometry>
        </mxCell>
        <mxCell id="Zlc96BeneEr9R1D9HueX-27" style="edgeStyle=orthogonalEdgeStyle;rounded=0;orthogonalLoop=1;jettySize=auto;html=1;entryX=0.5;entryY=0;entryDx=0;entryDy=0;" parent="1" source="Zlc96BeneEr9R1D9HueX-21" target="Zlc96BeneEr9R1D9HueX-25" edge="1">
          <mxGeometry relative="1" as="geometry" />
        </mxCell>
        <mxCell id="Zlc96BeneEr9R1D9HueX-30" value="shop" style="edgeLabel;html=1;align=center;verticalAlign=middle;resizable=0;points=[];" parent="Zlc96BeneEr9R1D9HueX-27" vertex="1" connectable="0">
          <mxGeometry x="-0.3218" y="-3" relative="1" as="geometry">
            <mxPoint x="-1" as="offset" />
          </mxGeometry>
        </mxCell>
        <mxCell id="Zlc96BeneEr9R1D9HueX-36" style="edgeStyle=orthogonalEdgeStyle;rounded=0;orthogonalLoop=1;jettySize=auto;html=1;entryX=0.5;entryY=0;entryDx=0;entryDy=0;" parent="1" source="Zlc96BeneEr9R1D9HueX-21" target="Zlc96BeneEr9R1D9HueX-33" edge="1">
          <mxGeometry relative="1" as="geometry" />
        </mxCell>
        <mxCell id="Zlc96BeneEr9R1D9HueX-41" style="edgeStyle=orthogonalEdgeStyle;rounded=0;orthogonalLoop=1;jettySize=auto;html=1;entryX=0.5;entryY=0;entryDx=0;entryDy=0;" parent="1" source="Zlc96BeneEr9R1D9HueX-21" target="Zlc96BeneEr9R1D9HueX-40" edge="1">
          <mxGeometry relative="1" as="geometry" />
        </mxCell>
        <mxCell id="Zlc96BeneEr9R1D9HueX-64" style="edgeStyle=orthogonalEdgeStyle;rounded=0;orthogonalLoop=1;jettySize=auto;html=1;entryX=0.5;entryY=0;entryDx=0;entryDy=0;" parent="1" source="Zlc96BeneEr9R1D9HueX-21" target="Zlc96BeneEr9R1D9HueX-63" edge="1">
          <mxGeometry relative="1" as="geometry" />
        </mxCell>
        <mxCell id="Zlc96BeneEr9R1D9HueX-21" value="Создатетль опросов" style="ellipse;whiteSpace=wrap;html=1;" parent="1" vertex="1">
          <mxGeometry x="880" y="-110" width="120" height="80" as="geometry" />
        </mxCell>
        <mxCell id="Zlc96BeneEr9R1D9HueX-31" style="edgeStyle=orthogonalEdgeStyle;rounded=0;orthogonalLoop=1;jettySize=auto;html=1;" parent="1" source="Zlc96BeneEr9R1D9HueX-25" target="Zlc96BeneEr9R1D9HueX-28" edge="1">
          <mxGeometry relative="1" as="geometry" />
        </mxCell>
        <mxCell id="Zlc96BeneEr9R1D9HueX-25" value="show plugins list" style="rounded=0;whiteSpace=wrap;html=1;" parent="1" vertex="1">
          <mxGeometry x="670" y="40" width="120" height="60" as="geometry" />
        </mxCell>
        <mxCell id="Zlc96BeneEr9R1D9HueX-32" style="edgeStyle=orthogonalEdgeStyle;rounded=0;orthogonalLoop=1;jettySize=auto;html=1;" parent="1" source="Zlc96BeneEr9R1D9HueX-28" target="Zlc96BeneEr9R1D9HueX-54" edge="1">
          <mxGeometry relative="1" as="geometry">
            <mxPoint x="730" y="310" as="targetPoint" />
          </mxGeometry>
        </mxCell>
        <mxCell id="Zlc96BeneEr9R1D9HueX-28" value="buy" style="rounded=0;whiteSpace=wrap;html=1;" parent="1" vertex="1">
          <mxGeometry x="670" y="170" width="120" height="60" as="geometry" />
        </mxCell>
        <mxCell id="Zlc96BeneEr9R1D9HueX-34" style="edgeStyle=orthogonalEdgeStyle;rounded=0;orthogonalLoop=1;jettySize=auto;html=1;" parent="1" source="Zlc96BeneEr9R1D9HueX-33" target="Zlc96BeneEr9R1D9HueX-35" edge="1">
          <mxGeometry relative="1" as="geometry">
            <mxPoint x="960" y="160" as="targetPoint" />
          </mxGeometry>
        </mxCell>
        <mxCell id="_6pGRXxnUFgYPnxhOIFC-3" style="edgeStyle=orthogonalEdgeStyle;rounded=0;orthogonalLoop=1;jettySize=auto;html=1;entryX=0.25;entryY=0;entryDx=0;entryDy=0;" parent="1" source="Zlc96BeneEr9R1D9HueX-33" target="_6pGRXxnUFgYPnxhOIFC-1" edge="1">
          <mxGeometry relative="1" as="geometry" />
        </mxCell>
        <mxCell id="_6pGRXxnUFgYPnxhOIFC-4" style="edgeStyle=orthogonalEdgeStyle;rounded=0;orthogonalLoop=1;jettySize=auto;html=1;startArrow=classic;startFill=1;" parent="1" source="Zlc96BeneEr9R1D9HueX-33" target="_6pGRXxnUFgYPnxhOIFC-2" edge="1">
          <mxGeometry relative="1" as="geometry" />
        </mxCell>
        <mxCell id="Zlc96BeneEr9R1D9HueX-33" value="show added list plugins" style="rounded=0;whiteSpace=wrap;html=1;" parent="1" vertex="1">
          <mxGeometry x="880" y="50" width="120" height="60" as="geometry" />
        </mxCell>
        <mxCell id="Zlc96BeneEr9R1D9HueX-35" value="install" style="rounded=0;whiteSpace=wrap;html=1;" parent="1" vertex="1">
          <mxGeometry x="840" y="180" width="120" height="60" as="geometry" />
        </mxCell>
        <mxCell id="Zlc96BeneEr9R1D9HueX-42" style="edgeStyle=orthogonalEdgeStyle;rounded=0;orthogonalLoop=1;jettySize=auto;html=1;" parent="1" source="Zlc96BeneEr9R1D9HueX-40" target="Zlc96BeneEr9R1D9HueX-43" edge="1">
          <mxGeometry relative="1" as="geometry">
            <mxPoint x="1220" y="170" as="targetPoint" />
          </mxGeometry>
        </mxCell>
        <mxCell id="Zlc96BeneEr9R1D9HueX-40" value="create survey" style="rounded=0;whiteSpace=wrap;html=1;" parent="1" vertex="1">
          <mxGeometry x="1260" y="40" width="120" height="60" as="geometry" />
        </mxCell>
        <mxCell id="Zlc96BeneEr9R1D9HueX-47" style="edgeStyle=orthogonalEdgeStyle;rounded=0;orthogonalLoop=1;jettySize=auto;html=1;exitX=0.5;exitY=1;exitDx=0;exitDy=0;entryX=0.5;entryY=0;entryDx=0;entryDy=0;" parent="1" source="Zlc96BeneEr9R1D9HueX-43" target="Zlc96BeneEr9R1D9HueX-46" edge="1">
          <mxGeometry relative="1" as="geometry" />
        </mxCell>
        <mxCell id="Zlc96BeneEr9R1D9HueX-76" style="edgeStyle=orthogonalEdgeStyle;rounded=0;orthogonalLoop=1;jettySize=auto;html=1;exitX=1;exitY=0.5;exitDx=0;exitDy=0;entryX=0;entryY=0.5;entryDx=0;entryDy=0;startArrow=classic;startFill=1;" parent="1" source="Zlc96BeneEr9R1D9HueX-43" target="Zlc96BeneEr9R1D9HueX-75" edge="1">
          <mxGeometry relative="1" as="geometry" />
        </mxCell>
        <mxCell id="Zlc96BeneEr9R1D9HueX-43" value="select plugins" style="rounded=0;whiteSpace=wrap;html=1;" parent="1" vertex="1">
          <mxGeometry x="1160" y="180" width="120" height="60" as="geometry" />
        </mxCell>
        <mxCell id="Zlc96BeneEr9R1D9HueX-49" style="edgeStyle=orthogonalEdgeStyle;rounded=0;orthogonalLoop=1;jettySize=auto;html=1;exitX=0.5;exitY=1;exitDx=0;exitDy=0;entryX=0.5;entryY=0;entryDx=0;entryDy=0;" parent="1" source="Zlc96BeneEr9R1D9HueX-46" target="Zlc96BeneEr9R1D9HueX-48" edge="1">
          <mxGeometry relative="1" as="geometry" />
        </mxCell>
        <mxCell id="Zlc96BeneEr9R1D9HueX-60" style="edgeStyle=orthogonalEdgeStyle;rounded=0;orthogonalLoop=1;jettySize=auto;html=1;entryX=0.61;entryY=0.014;entryDx=0;entryDy=0;entryPerimeter=0;" parent="1" source="Zlc96BeneEr9R1D9HueX-46" target="Zlc96BeneEr9R1D9HueX-59" edge="1">
          <mxGeometry relative="1" as="geometry">
            <Array as="points">
              <mxPoint x="1390" y="340" />
              <mxPoint x="1390" y="670" />
              <mxPoint x="1200" y="670" />
              <mxPoint x="1200" y="711" />
            </Array>
          </mxGeometry>
        </mxCell>
        <mxCell id="Zlc96BeneEr9R1D9HueX-46" value="add screen&lt;br&gt;(1 to n)" style="rhombus;whiteSpace=wrap;html=1;" parent="1" vertex="1">
          <mxGeometry x="1145" y="290" width="150" height="100" as="geometry" />
        </mxCell>
        <mxCell id="Zlc96BeneEr9R1D9HueX-62" style="edgeStyle=orthogonalEdgeStyle;rounded=0;orthogonalLoop=1;jettySize=auto;html=1;entryX=0;entryY=0.5;entryDx=0;entryDy=0;" parent="1" source="Zlc96BeneEr9R1D9HueX-48" target="Zlc96BeneEr9R1D9HueX-46" edge="1">
          <mxGeometry relative="1" as="geometry">
            <Array as="points">
              <mxPoint x="1060" y="570" />
              <mxPoint x="1060" y="340" />
            </Array>
          </mxGeometry>
        </mxCell>
        <mxCell id="Zlc96BeneEr9R1D9HueX-48" value="add widgets" style="rounded=0;whiteSpace=wrap;html=1;" parent="1" vertex="1">
          <mxGeometry x="1165" y="480" width="110" height="60" as="geometry" />
        </mxCell>
        <mxCell id="Zlc96BeneEr9R1D9HueX-54" value="add to db" style="rounded=0;whiteSpace=wrap;html=1;" parent="1" vertex="1">
          <mxGeometry x="670" y="280" width="120" height="60" as="geometry" />
        </mxCell>
        <mxCell id="Zlc96BeneEr9R1D9HueX-59" value="save survey" style="rounded=0;whiteSpace=wrap;html=1;" parent="1" vertex="1">
          <mxGeometry x="1130" y="750" width="120" height="60" as="geometry" />
        </mxCell>
        <mxCell id="Zlc96BeneEr9R1D9HueX-70" style="edgeStyle=orthogonalEdgeStyle;rounded=0;orthogonalLoop=1;jettySize=auto;html=1;entryX=0.5;entryY=0;entryDx=0;entryDy=0;" parent="1" source="Zlc96BeneEr9R1D9HueX-63" target="Zlc96BeneEr9R1D9HueX-65" edge="1">
          <mxGeometry relative="1" as="geometry" />
        </mxCell>
        <mxCell id="Zlc96BeneEr9R1D9HueX-63" value="show list my_survey" style="rounded=0;whiteSpace=wrap;html=1;" parent="1" vertex="1">
          <mxGeometry x="1590" y="40" width="120" height="60" as="geometry" />
        </mxCell>
        <mxCell id="Zlc96BeneEr9R1D9HueX-68" style="edgeStyle=orthogonalEdgeStyle;rounded=0;orthogonalLoop=1;jettySize=auto;html=1;entryX=0.25;entryY=0;entryDx=0;entryDy=0;" parent="1" source="Zlc96BeneEr9R1D9HueX-65" target="Zlc96BeneEr9R1D9HueX-66" edge="1">
          <mxGeometry relative="1" as="geometry" />
        </mxCell>
        <mxCell id="Zlc96BeneEr9R1D9HueX-69" style="edgeStyle=orthogonalEdgeStyle;rounded=0;orthogonalLoop=1;jettySize=auto;html=1;entryX=0.5;entryY=0;entryDx=0;entryDy=0;" parent="1" source="Zlc96BeneEr9R1D9HueX-65" target="Zlc96BeneEr9R1D9HueX-67" edge="1">
          <mxGeometry relative="1" as="geometry" />
        </mxCell>
        <mxCell id="Zlc96BeneEr9R1D9HueX-74" style="edgeStyle=orthogonalEdgeStyle;rounded=0;orthogonalLoop=1;jettySize=auto;html=1;" parent="1" source="Zlc96BeneEr9R1D9HueX-65" target="Zlc96BeneEr9R1D9HueX-73" edge="1">
          <mxGeometry relative="1" as="geometry">
            <mxPoint x="1830" y="220" as="targetPoint" />
          </mxGeometry>
        </mxCell>
        <mxCell id="Zlc96BeneEr9R1D9HueX-65" value="select&amp;nbsp;" style="rounded=0;whiteSpace=wrap;html=1;" parent="1" vertex="1">
          <mxGeometry x="1590" y="190" width="120" height="60" as="geometry" />
        </mxCell>
        <mxCell id="Zlc96BeneEr9R1D9HueX-66" value="delete" style="rounded=0;whiteSpace=wrap;html=1;" parent="1" vertex="1">
          <mxGeometry x="1510" y="330" width="120" height="60" as="geometry" />
        </mxCell>
        <mxCell id="Zlc96BeneEr9R1D9HueX-67" value="send" style="rounded=0;whiteSpace=wrap;html=1;" parent="1" vertex="1">
          <mxGeometry x="1710" y="330" width="120" height="60" as="geometry" />
        </mxCell>
        <mxCell id="Zlc96BeneEr9R1D9HueX-79" style="edgeStyle=orthogonalEdgeStyle;rounded=0;orthogonalLoop=1;jettySize=auto;html=1;entryX=0;entryY=0.5;entryDx=0;entryDy=0;startArrow=classic;startFill=1;" parent="1" source="Zlc96BeneEr9R1D9HueX-73" target="Zlc96BeneEr9R1D9HueX-77" edge="1">
          <mxGeometry relative="1" as="geometry">
            <mxPoint x="2090" y="360" as="targetPoint" />
          </mxGeometry>
        </mxCell>
        <mxCell id="Zlc96BeneEr9R1D9HueX-81" style="edgeStyle=orthogonalEdgeStyle;rounded=0;orthogonalLoop=1;jettySize=auto;html=1;exitX=0.5;exitY=1;exitDx=0;exitDy=0;entryX=0.5;entryY=0;entryDx=0;entryDy=0;" parent="1" source="Zlc96BeneEr9R1D9HueX-73" target="Zlc96BeneEr9R1D9HueX-80" edge="1">
          <mxGeometry relative="1" as="geometry" />
        </mxCell>
        <mxCell id="Zlc96BeneEr9R1D9HueX-73" value="select plugin to display result" style="rounded=0;whiteSpace=wrap;html=1;" parent="1" vertex="1">
          <mxGeometry x="1920" y="330" width="120" height="60" as="geometry" />
        </mxCell>
        <mxCell id="Zlc96BeneEr9R1D9HueX-75" value="connect to db" style="rounded=0;whiteSpace=wrap;html=1;" parent="1" vertex="1">
          <mxGeometry x="1340" y="180" width="120" height="60" as="geometry" />
        </mxCell>
        <mxCell id="Zlc96BeneEr9R1D9HueX-77" value="connct to db plugins" style="rounded=0;whiteSpace=wrap;html=1;" parent="1" vertex="1">
          <mxGeometry x="2120" y="330" width="120" height="60" as="geometry" />
        </mxCell>
        <mxCell id="Zlc96BeneEr9R1D9HueX-83" style="edgeStyle=orthogonalEdgeStyle;rounded=0;orthogonalLoop=1;jettySize=auto;html=1;startArrow=classic;startFill=1;" parent="1" source="Zlc96BeneEr9R1D9HueX-80" target="Zlc96BeneEr9R1D9HueX-82" edge="1">
          <mxGeometry relative="1" as="geometry" />
        </mxCell>
        <mxCell id="Zlc96BeneEr9R1D9HueX-80" value="show result" style="rounded=0;whiteSpace=wrap;html=1;" parent="1" vertex="1">
          <mxGeometry x="1920" y="450" width="120" height="60" as="geometry" />
        </mxCell>
        <mxCell id="Zlc96BeneEr9R1D9HueX-82" value="connect to survey db" style="rounded=0;whiteSpace=wrap;html=1;" parent="1" vertex="1">
          <mxGeometry x="2120" y="450" width="120" height="60" as="geometry" />
        </mxCell>
        <mxCell id="Zlc96BeneEr9R1D9HueX-84" value="&lt;h1&gt;создатель опросов&lt;/h1&gt;&lt;p&gt;обычный пользак + мастерская опросов + подключение плагинов + вывод рез-тов прохождения&lt;/p&gt;" style="text;html=1;strokeColor=none;fillColor=none;spacing=5;spacingTop=-20;whiteSpace=wrap;overflow=hidden;rounded=0;" parent="1" vertex="1">
          <mxGeometry x="850" y="-260" width="190" height="120" as="geometry" />
        </mxCell>
        <mxCell id="_6pGRXxnUFgYPnxhOIFC-1" value="unistall" style="rounded=0;whiteSpace=wrap;html=1;" parent="1" vertex="1">
          <mxGeometry x="1000" y="180" width="120" height="60" as="geometry" />
        </mxCell>
        <mxCell id="_6pGRXxnUFgYPnxhOIFC-2" value="connect to db" style="rounded=0;whiteSpace=wrap;html=1;" parent="1" vertex="1">
          <mxGeometry x="1060" y="50" width="120" height="60" as="geometry" />
        </mxCell>
        <mxCell id="_6pGRXxnUFgYPnxhOIFC-8" style="edgeStyle=orthogonalEdgeStyle;rounded=0;orthogonalLoop=1;jettySize=auto;html=1;" parent="1" source="_6pGRXxnUFgYPnxhOIFC-5" target="_6pGRXxnUFgYPnxhOIFC-7" edge="1">
          <mxGeometry relative="1" as="geometry" />
        </mxCell>
        <mxCell id="_6pGRXxnUFgYPnxhOIFC-5" value="творец - плагинов" style="ellipse;whiteSpace=wrap;html=1;" parent="1" vertex="1">
          <mxGeometry x="2410" y="-70" width="120" height="80" as="geometry" />
        </mxCell>
        <mxCell id="_6pGRXxnUFgYPnxhOIFC-7" value="будет понятно когда распишу все про виджеты, скрины, плагины и проч" style="rounded=0;whiteSpace=wrap;html=1;" parent="1" vertex="1">
          <mxGeometry x="2420" y="150" width="120" height="60" as="geometry" />
        </mxCell>
        <mxCell id="_6pGRXxnUFgYPnxhOIFC-9" value="&lt;h1&gt;Творец-плагинов&lt;/h1&gt;&lt;p&gt;- пользователь, который может создавать из нашего инструментария элементы для создания опросов&lt;/p&gt;" style="text;html=1;strokeColor=none;fillColor=none;spacing=5;spacingTop=-20;whiteSpace=wrap;overflow=hidden;rounded=0;" parent="1" vertex="1">
          <mxGeometry x="2385" y="-280" width="190" height="140" as="geometry" />
        </mxCell>
      </root>
    </mxGraphModel>
  </diagram>
</mxfile>
